<svg width="92" height="92" viewBox="0 0 92 92" fill="none" xmlns="http://www.w3.org/2000/svg">
<path d="M7.66602 67.9505C7.66602 52.8435 7.66602 37.7365 7.66602 22.6294C7.82563 21.4624 8.08102 20.3628 9.01036 19.4938C10.0851 18.49 11.2982 17.9366 12.7667 17.9366C17.0729 17.9331 21.379 17.9366 25.6852 17.9331C33.4001 17.9331 41.1186 17.9295 48.8335 17.9366C49.3797 17.9366 49.9295 17.887 50.4651 18.0431C51.0575 18.4581 50.6992 18.8766 50.4296 19.2526C49.1811 21.0049 47.6878 22.5301 45.9851 23.8425C42.9914 26.1481 39.5827 27.4109 35.8511 27.8578C33.2263 27.4783 30.5908 27.6273 27.9589 27.7195C25.5965 27.8011 23.2306 27.6911 20.8718 27.794C17.6723 27.9359 15.2497 29.4079 13.9266 32.3875C11.7416 37.3073 15.3171 42.8797 20.7157 42.9329C21.0137 42.9578 21.3152 42.9507 21.6025 43.0358C22.1878 43.2025 22.5318 43.5218 22.5283 44.1957C22.5141 46.9305 22.585 49.6653 22.4857 52.3966C22.578 55.0817 22.5035 57.7704 22.5318 60.4555C22.5567 62.8179 24.167 64.8078 26.4301 65.2902C28.7676 65.7868 31.0342 64.6233 31.9919 62.4135C32.3147 61.6722 32.4282 60.8883 32.4318 60.0831C32.4495 57.5185 32.3821 54.9575 32.4743 52.393C32.3785 49.6547 32.4211 46.9163 32.4495 44.178C32.4566 43.3267 32.6233 43.1777 33.4923 43.2061C34.2727 43.2309 35.0247 43.0358 35.7873 42.9684C39.8168 43.3479 43.41 44.8306 46.5314 47.3845C48.8654 49.2929 50.7489 51.602 52.1464 54.2836C52.753 55.447 53.4305 56.5892 53.693 57.9087C53.7816 58.3415 54.2215 58.643 54.2144 59.1289C54.2924 60.2782 54.6932 61.2785 55.6368 61.9772C56.7647 62.8143 57.9991 63.0059 59.3009 62.4171C60.6417 61.8141 61.2589 60.7038 61.4221 59.2992C61.4753 58.8522 61.4433 58.4018 61.4433 57.9548C61.4433 45.2421 61.4398 32.5293 61.454 19.8166C61.454 19.2632 61.305 18.6638 61.7236 18.1672C62.1066 17.9437 62.5323 17.9366 62.9579 17.9366C68.3885 17.9295 73.8191 17.9154 79.2532 17.9437C81.3425 17.9544 82.8287 19.0256 83.8503 20.7849C84.2795 21.5192 84.3078 22.3634 84.3078 23.1792C84.3185 37.928 84.2936 52.6768 84.3327 67.4291C84.3398 70.6463 81.8426 72.4056 79.6931 72.6681C78.973 72.7568 78.2565 72.8029 77.5329 72.8029C67.9664 72.8029 58.3999 72.8029 48.8299 72.8029C48.2305 72.8029 47.6345 72.7958 47.0422 72.888C46.2937 72.583 45.524 72.8029 44.765 72.8029C40.6042 72.7994 36.447 72.7994 32.2863 72.8029C31.9387 72.8029 31.5875 72.7781 31.247 72.888C30.8852 73.0051 30.6405 73.2428 30.6121 73.6365C30.5802 74.0621 30.8143 74.3424 31.1903 74.502C31.5202 74.6439 31.8749 74.6226 32.2225 74.6226C34.9112 74.6297 37.6034 74.619 40.2921 74.6297C40.7106 74.6332 41.1434 74.5658 41.53 74.8035C41.8776 75.2681 41.4591 75.4242 41.1789 75.5838C40.3559 76.0485 39.4727 76.4032 38.6108 76.7934C33.4178 79.1487 28.2604 81.5784 23.0533 83.9017C21.9359 84.4019 20.7406 84.4693 19.5452 84.1749C18.7861 83.9904 17.9703 82.9724 17.9455 82.1069C17.8816 79.9645 17.9064 77.822 17.9313 75.6796C17.9348 75.3568 18.0448 75.0979 18.325 74.9241C18.63 74.5729 19.0486 74.6332 19.4388 74.6297C21.4571 74.6155 23.4754 74.6332 25.4937 74.619C26.4904 74.6119 26.9373 74.3246 26.9444 73.711C26.9515 73.0867 26.5188 72.8065 25.5078 72.8029C23.5889 72.7958 21.6699 72.7923 19.7509 72.8029C18.8216 72.81 18.6762 72.9625 18.623 73.8848C18.6017 74.2537 18.6584 74.6439 18.3215 74.9241C18.02 75.1369 17.9348 74.8744 17.8461 74.69C17.761 74.5091 17.7752 74.2998 17.7646 74.1012C17.6936 72.8313 17.6617 72.8171 16.3493 72.7923C14.9588 72.7674 13.5719 72.8561 12.1815 72.6646C10.5462 72.4376 9.3225 71.5934 8.32577 70.3483C7.78307 69.646 7.87175 68.7557 7.66602 67.9505Z" fill="#3969E5"/>
<path d="M53.7463 12.0193C53.7924 11.7532 53.842 11.4908 53.8846 11.2247C54.1365 9.63208 54.9665 8.50056 56.4917 7.9082C56.6726 7.83725 56.8429 7.74858 57.0202 7.66699C57.57 7.66699 58.1163 7.66699 58.6661 7.66699C58.9357 7.78759 59.2088 7.89756 59.4713 8.02525C61.0107 8.77723 61.7769 10.0364 61.7982 11.7284C61.8265 13.8957 61.8194 16.0665 61.8265 18.2338C61.8194 18.6062 61.8052 18.9786 61.8052 19.3546C61.8052 32.525 61.8053 45.6953 61.8017 58.8656C61.8017 60.9867 60.6134 62.5794 58.737 63.0086C56.1512 63.5974 53.9946 61.8168 53.8562 58.9791C53.5937 57.8086 53.5051 56.6238 53.5051 55.4214C53.5193 43.4571 53.5051 31.4963 53.5193 19.532C53.5264 17.0313 53.3561 14.5164 53.7463 12.0193Z" fill="#F2D45B"/>
<path d="M53.7539 12.0156C53.9135 12.2355 53.8816 12.4909 53.8816 12.7357C53.8816 28.0272 53.8816 43.3186 53.8781 58.6101C53.8781 58.7343 53.8674 58.8584 53.8639 58.9825C52.9239 56.5705 51.8988 54.2046 50.3877 52.0764C47.0677 47.3942 42.6445 44.4395 36.9514 43.4605C36.657 43.4109 36.359 43.3967 36.0611 43.3683C35.0431 43.3044 33.9789 43.1555 33.0177 43.386C31.4534 43.762 29.9069 43.535 28.3568 43.6095C27.995 43.6272 27.6013 43.6592 27.2998 43.3612C27.0728 43.01 27.0515 42.6092 27.0479 42.2119C27.0373 37.7 27.0337 33.1917 27.0515 28.6798C27.055 27.527 27.126 27.4915 28.3001 27.4809C30.8398 27.4596 33.3795 27.5377 35.9192 27.4419C42.2578 26.6828 47.128 23.5614 50.6396 18.2656C52.0336 16.3573 52.9345 14.2042 53.7539 12.0156Z" fill="#EFC319"/>
<path d="M35.9253 27.4445C35.6238 27.6076 35.2939 27.5615 34.9747 27.5615C32.7365 27.5651 30.4983 27.5828 28.2636 27.5509C27.6145 27.5438 27.3981 27.7566 27.4017 28.4093C27.4265 33.3574 27.4194 38.3021 27.423 43.2503C27.2491 43.6156 26.9015 43.5943 26.5823 43.605C25.3905 43.6404 24.1845 43.722 23.0033 43.5801C22.1768 43.4808 21.3503 43.3354 20.5168 43.2857C17.1719 43.3141 13.2665 40.6006 12.9154 35.8936C12.6139 31.8464 15.6183 28.1645 19.5804 27.5438C20.8467 27.3451 22.113 27.4196 23.3793 27.4161C27.5648 27.4125 31.7433 27.4338 35.9253 27.4445Z" fill="#F19B1F"/>
<path d="M32.7661 52.5491C32.7732 55.291 32.8655 58.0365 32.7626 60.7748C32.6562 63.6515 30.1129 65.9216 27.3639 65.7868C24.3702 65.6414 22.1816 63.3713 22.1816 60.3988C22.1816 57.7811 22.1958 55.1633 22.2029 52.5456C22.4299 52.205 22.7846 52.1944 23.1323 52.1944C26.0338 52.1696 28.9353 52.1696 31.8368 52.1944C32.1844 52.198 32.5462 52.2015 32.7661 52.5491Z" fill="#F19B1F"/>
<path d="M32.7687 52.5518C29.2464 52.5518 25.7277 52.5518 22.2055 52.5482C22.1984 49.8489 22.1913 47.1496 22.1842 44.4502C22.1806 43.4393 22.1806 43.4464 21.1804 43.4003C20.9604 43.3897 20.7476 43.3294 20.5312 43.2903C22.8333 43.2797 25.1318 43.2655 27.4339 43.2549C29.9736 43.2584 32.5097 43.2584 35.0495 43.2691C35.3935 43.2691 35.7482 43.2194 36.0781 43.3755C35.3084 43.3826 34.5351 43.4358 33.7654 43.3826C33.0241 43.3329 32.7651 43.5741 32.7758 44.3438C32.8077 47.0786 32.7758 49.8134 32.7687 52.5518Z" fill="#E47E25"/>
<path d="M46.9928 72.5426C45.1979 73.369 43.435 74.2629 41.5906 74.9794C38.2528 74.9794 34.915 74.9688 31.5771 74.9865C30.9458 74.99 30.5379 74.7205 30.247 74.2061C29.9739 73.7237 30.1477 73.2874 30.4172 72.876C30.7046 72.4361 31.1621 72.4291 31.6162 72.4291C34.3793 72.4291 37.1461 72.4291 39.9092 72.4291C41.9524 72.4291 43.9919 72.4291 46.0351 72.4291C46.3614 72.4361 46.6877 72.39 46.9928 72.5426Z" fill="#3C26C4"/>
<path d="M77.6283 23.6007C77.5822 24.0547 77.3658 24.4803 76.894 24.6825C73.7903 26.0269 70.6866 27.3747 67.5687 28.6836C66.8416 28.9887 66.1073 28.602 65.859 27.9175C65.6143 27.2364 65.9123 26.5589 66.6784 26.2255C69.2784 25.094 71.8891 23.9837 74.4962 22.87C74.975 22.6642 75.4504 22.4372 75.9469 22.2811C76.7982 22.0151 77.6495 22.6749 77.6283 23.6007Z" fill="#EFC319"/>
<path d="M67.2755 42.0495C67.389 42.0814 67.6373 42.1276 67.8608 42.2233C70.7871 43.4719 73.7135 44.7205 76.6363 45.9832C77.5372 46.3734 77.8565 47.0828 77.5088 47.8206C77.2251 48.4272 76.5831 48.7819 75.9659 48.5229C72.8019 47.1999 69.645 45.8485 66.5022 44.4757C65.878 44.2026 65.6651 43.5251 65.8709 42.8866C66.0447 42.3581 66.5413 42.0318 67.2755 42.0495Z" fill="#EFC319"/>
<path d="M71.6834 36.6995C70.2149 36.6995 68.7429 36.7102 67.2744 36.696C66.3415 36.6889 65.7668 36.1746 65.7775 35.4013C65.7881 34.6103 66.345 34.1102 67.2779 34.1066C70.2184 34.096 73.1554 34.096 76.096 34.1066C77.0714 34.1102 77.6673 34.6422 77.6425 35.4368C77.6176 36.1888 77.0182 36.6924 76.096 36.6995C74.6239 36.7066 73.1519 36.6995 71.6834 36.6995Z" fill="#EFC319"/>
<path d="M18.2747 75.0029C18.2818 74.3573 18.296 73.7082 18.2889 73.0627C18.2853 72.6264 18.4662 72.4277 18.9096 72.4277C21.3713 72.4348 23.8329 72.4206 26.2946 72.4419C26.9473 72.4455 27.3658 72.9279 27.4049 73.6054C27.4439 74.2935 27.0927 74.8149 26.4684 74.9355C26.1776 74.9923 25.8761 74.9745 25.5781 74.9745C23.1413 74.9816 20.7044 74.9852 18.2676 74.9923L18.2747 75.0029Z" fill="#3C26C4"/>
<path d="M34.8355 34.0824C34.1864 34.0824 33.5408 34.1037 32.8917 34.0788C32.0085 34.0434 31.4658 33.5361 31.4551 32.7842C31.4481 31.9896 32.0085 31.4434 32.9201 31.4576C35.2683 31.4966 37.5951 31.3547 39.883 30.7623C42.2879 30.138 44.5332 29.1519 46.6331 27.8253C47.4418 27.3146 48.247 27.4423 48.6585 28.1162C49.0593 28.776 48.8465 29.5279 48.0768 30.0245C45.2214 31.8761 42.1177 33.0963 38.7657 33.7029C37.4674 33.9405 36.155 34.0505 34.8355 34.0824Z" fill="#F4EEC9"/>
</svg>
