<svg width="36" height="36" viewBox="0 0 36 36" fill="none" xmlns="http://www.w3.org/2000/svg">
<rect width="36" height="36" rx="8" fill="#E53950" fill-opacity="0.1"/>
<path d="M20 18L16 22M16 18L20 22M15 12V11C15 10.2044 15.3161 9.44129 15.8787 8.87868C16.4413 8.31607 17.2044 8 18 8C18.7956 8 19.5587 8.31607 20.1213 8.87868C20.6839 9.44129 21 10.2044 21 11V12" stroke="#E53950" stroke-width="1.5" stroke-linecap="round"/>
<path d="M26.2248 18.526C25.6388 15.405 25.3468 13.844 24.2348 12.922C23.1258 12 21.5378 12 18.3608 12H17.6408C14.4648 12 12.8768 12 11.7658 12.922C10.6558 13.844 10.3628 15.405 9.7768 18.526C8.9538 22.915 8.5428 25.109 9.7428 26.555C10.9428 28 13.1748 28 17.6398 28H18.3618C22.8268 28 25.0598 28 26.2588 26.555C26.9548 25.715 27.1088 24.625 26.9548 23" stroke="#E53950" stroke-width="1.5" stroke-linecap="round"/>
</svg>
