<svg width="36" height="36" viewBox="0 0 36 36" fill="none" xmlns="http://www.w3.org/2000/svg">
<rect width="36" height="36" rx="8" fill="#0A9494" fill-opacity="0.17"/>
<path d="M18.3045 8C18.4087 8 18.5129 8 18.617 8C18.6384 8.01354 18.6577 8.03021 18.6806 8.03959C21.5958 9.23704 24.5111 10.4345 27.4264 11.6314C27.8066 11.7877 27.9212 11.9533 27.9212 12.356C27.9217 16.1187 27.9217 19.8813 27.9212 23.644C27.9212 24.0368 27.8024 24.2154 27.4446 24.3623C25.1846 25.2905 22.9235 26.2171 20.664 27.1463C19.9801 27.4276 19.2994 27.7151 18.617 28C18.5129 28 18.4087 28 18.3045 28C18.2837 27.9865 18.2639 27.9698 18.241 27.9604C15.3262 26.7624 12.411 25.565 9.49573 24.3675C9.11654 24.2118 9.00039 24.0456 9.00039 23.644C8.99987 19.8813 8.99987 16.1187 9.00039 12.356C9.00039 11.9611 9.1181 11.7861 9.47698 11.6387C11.6708 10.7376 13.8657 9.83812 16.0591 8.93599C16.8091 8.62764 17.556 8.31252 18.3045 8ZM19.0863 26.4348C19.177 26.4015 19.2499 26.377 19.3202 26.3484C21.7057 25.3681 24.0897 24.3857 26.4773 23.4107C26.6294 23.3487 26.6742 23.2727 26.6737 23.1133C26.669 19.9048 26.6701 16.6968 26.6701 13.4883C26.6701 13.419 26.6701 13.3498 26.6701 13.2508C26.5768 13.2873 26.5117 13.3117 26.4477 13.3378C24.0559 14.3196 21.6651 15.303 19.2712 16.2801C19.128 16.3385 19.0816 16.4067 19.0822 16.5619C19.0874 19.7834 19.0863 23.0044 19.0863 26.2259C19.0863 26.2895 19.0863 26.353 19.0863 26.4348ZM14.3126 14.9118C14.3126 15.0092 14.3126 15.0785 14.3126 15.1478C14.3126 15.9681 14.3168 16.7885 14.3111 17.6088C14.3074 18.0979 13.8684 18.412 13.447 18.2292C13.1819 18.1141 13.0595 17.901 13.06 17.6088C13.0631 16.5999 13.0584 15.5905 13.0641 14.5816C13.0652 14.443 13.0225 14.3764 12.8923 14.3243C12.1563 14.03 11.424 13.7258 10.6906 13.4248C10.5541 13.369 10.4182 13.3123 10.2656 13.2498C10.2588 13.3222 10.251 13.3659 10.251 13.4091C10.2505 16.6645 10.251 19.9194 10.2479 23.1748C10.2479 23.2914 10.2864 23.3451 10.3932 23.3883C12.7209 24.3399 15.0476 25.2957 17.3743 26.2504C17.5217 26.3109 17.6691 26.3713 17.8232 26.4343C17.829 26.39 17.8337 26.3707 17.8337 26.3515C17.8342 23.0638 17.8337 19.7761 17.8373 16.4879C17.8373 16.3687 17.7811 16.3338 17.6899 16.2968C16.9675 16.0035 16.2461 15.7067 15.5247 15.4108C15.1304 15.2493 14.7356 15.0858 14.3126 14.9118ZM15.2169 13.9222C15.3044 13.9612 15.3679 13.9909 15.4325 14.0175C16.3638 14.4003 17.2972 14.7785 18.2248 15.1696C18.3941 15.241 18.5327 15.2394 18.7004 15.1702C20.9338 14.2472 23.1699 13.3305 25.4054 12.4117C25.4976 12.3737 25.5882 12.332 25.7096 12.2789C24.5866 11.8179 23.498 11.3736 22.4131 10.9215C22.2865 10.8689 22.1865 10.8767 22.0657 10.9298C20.751 11.5075 19.4343 12.0799 18.1186 12.6544C17.1597 13.0732 16.2013 13.492 15.2169 13.9222ZM20.6208 10.1975C20.5296 10.1564 20.4786 10.1314 20.426 10.1095C19.8379 9.86676 19.2473 9.62821 18.6618 9.37872C18.5181 9.31726 18.3972 9.32455 18.255 9.38341C16.1419 10.2553 14.0267 11.1226 11.912 11.9914C11.6901 12.0825 11.4693 12.1763 11.2177 12.2815C11.312 12.3226 11.3703 12.3497 11.4297 12.3742C12.0901 12.6461 12.7527 12.9143 13.4105 13.1925C13.5423 13.2482 13.6496 13.243 13.7777 13.1867C15.0325 12.6351 16.2888 12.0888 17.5451 11.5403C18.5577 11.0991 19.5692 10.6569 20.6208 10.1975Z" fill="#0A9494"/>
</svg>
