<svg width="36" height="36" viewBox="0 0 36 36" fill="none" xmlns="http://www.w3.org/2000/svg">
<rect width="36" height="36" rx="8" fill="#1ABA2A" fill-opacity="0.1"/>
<path d="M8.00081 19.9362C8.00081 18.295 7.99638 16.6538 8.0082 15.0125C8.00968 14.8264 8.06581 14.6181 8.16036 14.4586C9.24762 12.6297 10.3482 10.8068 11.4428 8.98238C11.8358 8.32648 12.4149 8 13.1771 8C15.9898 8 18.8025 8 21.6137 8C22.3686 8 22.9477 8.31761 23.3377 8.96613C24.4412 10.8009 25.5477 12.6356 26.6423 14.4763C26.728 14.6196 26.7768 14.8057 26.7782 14.9727C26.79 16.2062 26.7827 17.4412 26.7886 18.6747C26.7886 18.7736 26.824 18.8903 26.8831 18.9686C29.4742 22.4003 27.4637 27.3151 23.2077 27.9371C21.6684 28.1616 20.2753 27.7805 19.0182 26.872C18.9222 26.8025 18.7877 26.7553 18.671 26.7553C15.7638 26.7493 12.8566 26.7523 9.94784 26.7493C9.00535 26.7479 8.26229 26.1791 8.05695 25.2987C8.01411 25.1155 8.00229 24.922 8.00229 24.7344C7.99934 23.1375 8.00081 21.5376 8.00081 19.9362ZM17.7034 25.5011C16.1538 23.0739 16.6546 20.2627 18.2072 18.6495C20.3581 16.413 22.8384 16.2224 25.5137 17.6406C25.5137 16.9448 25.5137 16.2313 25.5137 15.5222C20.0877 15.5222 14.678 15.5222 9.25648 15.5222C9.25648 15.6138 9.25648 15.6876 9.25648 15.7615C9.25648 18.7515 9.25648 21.7414 9.25648 24.7314C9.25648 25.2824 9.47807 25.5011 10.0365 25.5011C12.5094 25.5011 14.9809 25.5011 17.4538 25.5011C17.5276 25.5011 17.6015 25.5011 17.7034 25.5011ZM26.7856 22.3722C26.7841 19.9643 24.8164 18.004 22.4026 18.004C19.9902 18.004 18.0225 19.9673 18.021 22.3752C18.0196 24.792 19.9902 26.7567 22.4144 26.7523C24.8268 26.7493 26.7871 24.7831 26.7856 22.3722ZM18.0388 9.25419C18.0388 10.9368 18.0388 12.5928 18.0388 14.2473C20.3758 14.2473 22.6951 14.2473 25.0365 14.2473C25.0129 14.1971 24.9996 14.1616 24.9804 14.1277C24.0704 12.612 23.1589 11.0949 22.2475 9.57919C22.113 9.35612 21.9151 9.25124 21.6551 9.25272C21.1735 9.25419 20.6905 9.25272 20.2089 9.25272C19.488 9.25419 18.7685 9.25419 18.0388 9.25419ZM16.755 9.25419C16.6708 9.25419 16.6044 9.25419 16.5364 9.25419C15.4299 9.25419 14.3235 9.2601 13.217 9.25124C12.8802 9.24828 12.6586 9.38124 12.4887 9.66782C11.6157 11.1347 10.7337 12.5957 9.85477 14.0582C9.82079 14.1144 9.79273 14.1735 9.75284 14.2458C12.0987 14.2458 14.421 14.2458 16.755 14.2458C16.755 12.5839 16.755 10.9338 16.755 9.25419Z" fill="#1ABA2A"/>
<path d="M13.0232 17.3833C13.4235 17.3833 13.8239 17.3804 14.2242 17.3833C14.6172 17.3863 14.886 17.6374 14.889 17.9964C14.8919 18.3657 14.6216 18.6213 14.2153 18.6227C13.4147 18.6257 12.614 18.6257 11.8148 18.6227C11.4115 18.6213 11.1338 18.3627 11.1367 17.9978C11.1397 17.6344 11.4174 17.3848 11.8237 17.3818C12.2225 17.3818 12.6229 17.3833 13.0232 17.3833Z" fill="#1ABA2A"/>
<path d="M21.8171 23.3763C21.8806 23.298 21.9382 23.2124 22.0106 23.1415C22.8054 22.3452 23.5986 21.546 24.4023 20.7586C24.5116 20.6508 24.6652 20.5622 24.8144 20.5238C25.0715 20.4573 25.3226 20.5932 25.4511 20.8177C25.5767 21.0364 25.5531 21.323 25.392 21.5224C25.3581 21.5637 25.3182 21.6022 25.2798 21.6406C24.287 22.6318 23.2943 23.6245 22.3001 24.6158C21.9485 24.9673 21.6103 24.9673 21.2601 24.6187C20.6692 24.0308 20.0798 23.4399 19.4889 22.8519C19.2983 22.6628 19.2304 22.4412 19.3102 22.1842C19.3855 21.9419 19.5628 21.8031 19.8095 21.7617C20.034 21.7248 20.2202 21.8104 20.3782 21.9685C20.7904 22.3807 21.2055 22.7913 21.6147 23.2065C21.6664 23.2582 21.6915 23.335 21.7299 23.4015C21.758 23.3941 21.7875 23.3852 21.8171 23.3763Z" fill="#1ABA2A"/>
</svg>
