<svg width="36" height="36" viewBox="0 0 36 36" fill="none" xmlns="http://www.w3.org/2000/svg">
<rect width="36" height="36" rx="8" fill="#EE6E26" fill-opacity="0.1"/>
<path d="M10.4663 23.0258H10.3641C10.3726 20.2656 10.3726 17.4117 10.3641 14.6515V14.5492H14.4533H24.1736H24.2247H24.2673V14.6344C24.2673 14.89 24.2673 15.1456 24.2673 15.4011C24.7188 15.5119 25.1533 15.6738 25.5537 15.8953C25.5537 15.8782 25.5537 15.8612 25.5537 15.8441C25.5537 15.4608 25.5537 15.0859 25.5452 14.7026C25.5452 14.6515 25.5452 14.6003 25.5793 14.5663C25.5963 14.5492 25.6219 14.5407 25.6474 14.5322C25.7241 14.5152 25.8008 14.5407 25.886 14.5492C25.9797 14.5492 26.0649 14.5492 26.1586 14.5237C26.3034 14.4896 26.4312 14.4044 26.5164 14.2851C26.7123 14.0125 26.6442 13.6121 26.6442 13.2969C26.6442 12.9987 26.6442 12.7006 26.6442 12.4024C26.6442 11.8913 26.6442 11.3716 26.6442 10.8604C26.6442 10.8349 26.6442 10.8178 26.6442 10.7923C26.6442 10.2385 26.4056 10 25.8519 10H8.79654C8.48133 10 8.14057 10.1363 8.03834 10.46C7.9787 10.6304 8.00426 10.8178 8.01278 10.9882C8.01278 11.1586 8.01278 11.3375 8.01278 11.5164C8.01278 11.8146 8.01278 12.1128 8.01278 12.4109C8.01278 12.7006 8.01278 12.9902 8.01278 13.2799C8.01278 13.4929 8.00426 13.7058 8.0213 13.9103C8.02982 14.0892 8.08093 14.2596 8.22576 14.3703C8.39614 14.5066 8.62616 14.5492 8.84766 14.5492H8.94989L9.09471 14.5407C9.09471 14.5407 9.10323 14.5663 9.10323 14.6429C9.10323 17.1476 9.10323 23.5114 9.10323 23.5114C9.10323 24.0566 9.35029 24.3037 9.89551 24.3037H18.568C18.2528 23.9118 17.9887 23.4773 17.7928 23.0173H10.4663V23.0258ZM9.28213 13.2714V13.1691C9.28213 12.5557 9.27362 11.9594 9.27362 11.2949H9.30769H9.33325H17.3157L25.3493 11.346C25.3407 11.9594 25.3407 12.5728 25.3493 13.1862V13.2202V13.2373V13.2628H20.2889C20.2889 13.2628 10.8667 13.2628 9.28213 13.2714Z" fill="#EE6E26"/>
<path d="M24.4447 15.9723C23.1498 15.5634 21.7697 15.6827 20.56 16.3046C19.3503 16.935 18.4643 17.9914 18.0553 19.2863C17.6464 20.5812 17.7657 21.9613 18.3876 23.171C19.0095 24.3807 20.0744 25.2667 21.3693 25.6757C21.8804 25.8375 22.3916 25.9142 22.9027 25.9142C25.0666 25.9142 27.0771 24.5256 27.7587 22.3532C28.6106 19.6867 27.1197 16.8157 24.4447 15.9723ZM26.4552 21.9528C25.8333 23.9122 23.7376 25.0026 21.7782 24.3807C19.8188 23.7588 18.7284 21.6631 19.3503 19.7037C19.6484 18.7581 20.3044 17.9829 21.1819 17.5228C21.7186 17.2417 22.3064 17.1054 22.8942 17.1054C23.2691 17.1054 23.6524 17.165 24.0188 17.2843C25.9867 17.8977 27.0771 19.9934 26.4552 21.9528Z" fill="#EE6E26"/>
<path d="M24.9229 19.6096L24.94 19.4222L24.9229 19.2944C24.8633 19.0985 24.7185 18.9536 24.5225 18.894L24.3351 18.877L24.2073 18.894C24.0625 18.9366 23.9773 19.0303 23.9262 19.0729L22.9891 20.01L22.052 19.0729C22.0094 19.0303 21.9157 18.9366 21.7708 18.894L21.5834 18.877L21.4386 18.9025C21.2086 18.9792 21.1149 19.1411 21.0723 19.2603C20.9956 19.4733 21.0467 19.7033 21.2171 19.8737L22.1712 20.8278L21.2171 21.782L21.1575 21.8501C21.0552 21.9864 21.0126 22.1568 21.0467 22.3187C21.0808 22.4806 21.183 22.6254 21.3364 22.7106L21.6175 22.7787C21.7708 22.7787 21.9157 22.7191 22.0349 22.5998L22.9976 21.6457L23.9858 22.6339C24.088 22.7276 24.2244 22.7787 24.3692 22.7787C24.6077 22.7787 24.8207 22.6339 24.9059 22.4039L24.94 22.1739L24.9144 22.0376C24.8633 21.8927 24.7696 21.799 24.7355 21.7564L23.7984 20.8278L24.7355 19.8907C24.7866 19.8481 24.8803 19.7544 24.9229 19.6096Z" fill="#EE6E26"/>
</svg>
