<svg width="36" height="36" viewBox="0 0 36 36" fill="none" xmlns="http://www.w3.org/2000/svg">
<rect width="36" height="36" rx="8" fill="#F5C312" fill-opacity="0.1"/>
<path d="M8.00069 11.998C9.34421 11.998 10.6605 11.998 11.9818 11.998C12.0001 11.6109 11.9946 11.236 12.0401 10.8672C12.2328 9.30767 13.6008 8.06136 15.1659 8.00249C16.8043 7.94084 18.255 9.03164 18.5749 10.6018C18.6655 11.0461 18.6616 11.5098 18.7038 12.0002C19.3358 12.0002 19.9984 12.0002 20.6616 12.0002C21.3203 12.0002 21.979 12.0002 22.651 12.0002C22.651 12.9044 22.651 13.7953 22.651 14.6817C22.2128 14.6817 21.7846 14.6817 21.3386 14.6817C21.3386 14.2463 21.3386 13.8047 21.3386 13.3482C20.4433 13.3482 19.5663 13.3482 18.6738 13.3482C18.6738 13.7775 18.6738 14.2052 18.6738 14.6501C18.2262 14.6501 17.7929 14.6501 17.3375 14.6501C17.3375 14.2218 17.3375 13.7886 17.3375 13.3449C15.9979 13.3449 14.6816 13.3449 13.342 13.3449C13.342 13.7742 13.342 14.2074 13.342 14.6534C12.8865 14.6534 12.4539 14.6534 12.0057 14.6534C12.0057 14.2202 12.0057 13.792 12.0057 13.3488C11.1132 13.3488 10.2362 13.3488 9.33365 13.3488C9.33365 13.4221 9.33365 13.4959 9.33365 13.5693C9.33365 17.4509 9.33365 21.3326 9.33365 25.2149C9.33365 26.1152 9.88628 26.6661 10.7882 26.6661C12.5727 26.6667 14.3572 26.6672 16.1417 26.6639C16.2761 26.6639 16.3639 26.7044 16.4628 26.8016C16.8332 27.166 17.2209 27.5131 17.6024 27.8658C17.6413 27.9013 17.6841 27.9324 17.7679 27.9996C17.6513 27.9996 17.5852 27.9996 17.5197 27.9996C15.2631 27.9996 13.0065 28.0007 10.7499 27.9991C9.16037 27.998 8.00069 26.8405 8.00069 25.2543C7.99958 20.9144 8.00014 16.574 8.00014 12.2341C8.00069 12.1652 8.00069 12.0969 8.00069 11.998ZM13.3175 11.9864C14.6766 11.9864 15.9979 11.9864 17.3303 11.9864C17.3303 11.7375 17.3358 11.5026 17.3292 11.2677C17.2997 10.2507 16.4805 9.40154 15.4719 9.33822C14.4444 9.27324 13.5308 9.98248 13.372 10.9928C13.3225 11.3116 13.3347 11.6409 13.3175 11.9864Z" fill="#E7B815"/>
<path d="M21.9917 27.9994C18.6843 27.995 15.9933 25.2946 16 21.9867C16.0072 18.6787 18.7098 15.9895 22.0167 16C25.3168 16.01 27.9989 18.7015 27.9977 22.0017C27.9966 25.3096 25.2985 28.0039 21.9917 27.9994ZM26.6648 21.9978C26.6637 19.4285 24.5715 17.3347 22.0028 17.3335C19.434 17.3319 17.3374 19.423 17.3335 21.9911C17.3296 24.5693 19.429 26.6698 22.0061 26.6665C24.5737 26.6626 26.6659 24.5665 26.6648 21.9978Z" fill="#E7B815"/>
<path d="M23.9564 19.7295C24.2918 20.065 24.5945 20.3676 24.8789 20.652C23.6992 21.8328 22.5046 23.028 21.3227 24.2116C20.599 23.4857 19.8509 22.7359 19.1172 22.0005C19.4004 21.7178 19.7031 21.4151 20.0058 21.113C20.4168 21.5245 20.855 21.9633 21.2905 22.3993C22.203 21.4851 23.0794 20.6076 23.9564 19.7295Z" fill="#E7B815"/>
</svg>
