<svg width="36" height="36" viewBox="0 0 36 36" fill="none" xmlns="http://www.w3.org/2000/svg">
<rect width="36" height="36" rx="8" fill="#5069ED" fill-opacity="0.1"/>
<path d="M22.3336 28C22.0079 28 21.6831 28 21.3573 28C21.3208 27.9892 21.2853 27.972 21.2488 27.9677C19.1069 27.7129 17.5113 26.6388 16.4501 24.7668C16.3791 24.641 16.3082 24.598 16.1662 24.598C13.7061 24.6023 11.2461 24.5959 8.78705 24.6066C8.42363 24.6077 8.15591 24.5088 8 24.1712C8 18.9241 8 13.6771 8 8.43008C8.09354 8.23655 8.23655 8.09354 8.43008 8C13.6771 8 18.9241 8 24.1712 8C24.5088 8.15591 24.6077 8.42363 24.6066 8.78705C24.5959 11.2471 24.6023 13.7072 24.598 16.1662C24.598 16.3092 24.641 16.3802 24.7668 16.4501C26.3001 17.2984 27.3119 18.5661 27.7828 20.2542C27.8828 20.6144 27.929 20.9896 27.9989 21.3584C27.9989 21.6842 27.9989 22.0089 27.9989 22.3347C27.9871 22.3842 27.9699 22.4336 27.9645 22.4842C27.7194 25.069 25.7689 27.2796 23.2314 27.8409C22.9347 27.9065 22.6336 27.9473 22.3336 28ZM15.8985 23.4228C15.4082 21.1681 15.8813 19.1628 17.5199 17.5242C19.1585 15.8856 21.1638 15.4114 23.4164 15.8996C23.4164 13.6599 23.4164 11.4245 23.4164 9.18596C21.9713 9.18596 20.538 9.18596 19.0919 9.18596C19.0919 9.26982 19.0919 9.33971 19.0919 9.41068C19.0919 10.3934 19.093 11.3762 19.0919 12.3589C19.0908 12.9341 18.6725 13.1922 18.1575 12.9331C17.5887 12.6471 17.021 12.3578 16.4555 12.0654C16.3479 12.0095 16.263 12.0041 16.1512 12.0621C15.5813 12.36 15.0061 12.6492 14.4308 12.9384C13.9309 13.19 13.5083 12.9266 13.5072 12.3643C13.5062 11.3751 13.5062 10.3859 13.5062 9.3967C13.5062 9.32681 13.5062 9.258 13.5062 9.18596C12.0503 9.18596 10.616 9.18596 9.18488 9.18596C9.18488 13.9395 9.18488 18.6801 9.18488 23.4228C11.4299 23.4228 13.6599 23.4228 15.8985 23.4228ZM16.8866 21.8616C16.8909 24.6056 19.1155 26.8291 21.8552 26.828C24.598 26.8259 26.8237 24.6034 26.8259 21.8627C26.828 19.1112 24.5959 16.8812 21.8466 16.8898C19.0983 16.8974 16.8823 19.1188 16.8866 21.8616ZM17.9199 9.18596C16.8264 9.18596 15.7576 9.18596 14.69 9.18596C14.69 9.95581 14.69 10.7117 14.69 11.4955C15.1373 11.2686 15.5663 11.0557 15.991 10.8353C16.1985 10.7278 16.3995 10.7278 16.606 10.8332C16.9812 11.0256 17.3586 11.216 17.735 11.4063C17.7898 11.4342 17.8446 11.459 17.9199 11.4944C17.9199 10.7579 17.9199 10.0558 17.9199 9.35369C17.9199 9.30316 17.9199 9.25155 17.9199 9.18596Z" fill="#5069ED"/>
<path d="M8.43008 8.00098C8.23655 8.09344 8.09354 8.23752 8 8.43106C8 8.28806 8 8.14505 8 8.00098C8.143 8.00098 8.28601 8.00098 8.43008 8.00098Z" fill="white"/>
<path d="M21.1099 21.1055C21.2218 21.2033 21.3411 21.2926 21.4433 21.4001C21.6841 21.6549 21.6755 21.9742 21.4314 22.2162C21.1938 22.4516 20.8745 22.4667 20.6293 22.2291C20.1713 21.785 19.7197 21.3345 19.2746 20.8786C19.0294 20.6281 19.0348 20.2937 19.2832 20.041C19.7208 19.5948 20.1616 19.1529 20.6067 18.7142C20.8583 18.4669 21.182 18.4691 21.4239 18.7045C21.6755 18.9486 21.683 19.2722 21.4325 19.5357C21.3357 19.6378 21.2196 19.7228 21.1132 19.8152C21.1239 19.8346 21.1347 19.855 21.1443 19.8744C21.2777 19.8744 21.4099 19.8722 21.5433 19.8744C22.0626 19.8851 22.5884 19.855 23.1012 19.9184C24.1668 20.0507 24.9882 21.0367 24.9904 22.1216C24.9925 23.2731 24.1915 24.2472 23.0959 24.4031C22.8206 24.4419 22.5389 24.4397 22.2593 24.4408C21.5304 24.4451 20.8014 24.4429 20.0724 24.4419C19.6745 24.4419 19.4079 24.2085 19.4047 23.8612C19.4014 23.5064 19.6702 23.271 20.081 23.2699C20.953 23.2688 21.825 23.272 22.697 23.2688C23.1464 23.2667 23.4905 23.0688 23.6947 22.6688C23.9023 22.2624 23.8539 21.8603 23.598 21.4883C23.4098 21.2141 23.1367 21.0592 22.8077 21.0496C22.2561 21.0345 21.7035 21.0453 21.1508 21.0453C21.1368 21.0678 21.1239 21.0872 21.1099 21.1055Z" fill="#5069ED"/>
</svg>
