<svg width="36" height="36" viewBox="0 0 36 36" fill="none" xmlns="http://www.w3.org/2000/svg">
<rect width="36" height="36" rx="8" fill="#FF9934" fill-opacity="0.1"/>
<path d="M11.1705 18.8237C11.1705 18.695 11.1705 18.5836 11.1705 18.4722C11.1705 15.7911 11.1705 13.11 11.1705 10.4288C11.1705 9.48894 11.6543 9.00056 12.5912 9.00056C16.1844 8.99981 19.7775 8.99981 23.3707 9.00056C24.3286 9.00056 24.8132 9.48367 24.814 10.4378C24.8148 13.5238 24.814 16.6091 24.814 19.6951C24.814 19.8072 24.814 19.9193 24.814 20.0743C25.1579 19.9705 25.4724 19.8681 25.7907 19.7816C26.5146 19.5844 27.2814 19.8719 27.6983 20.4874C28.1145 21.1015 28.1077 21.9375 27.6306 22.5139C27.4395 22.7442 27.1783 22.9526 26.9059 23.0738C24.8373 23.9911 22.768 24.9084 20.6745 25.767C20.132 25.9897 19.5066 26.0266 18.9137 26.1093C17.3966 26.3215 15.8758 26.5082 14.3581 26.7106C13.7094 26.7971 13.0841 26.7452 12.4858 26.463C11.8146 26.1462 11.1366 25.8452 10.4729 25.5141C9.89725 25.2267 9.30278 25.0574 8.65563 25.101C8.60897 25.104 8.56157 25.1033 8.51491 25.098C8.20789 25.0641 7.99719 24.8309 8.0002 24.5299C8.00321 24.2296 8.21692 23.9941 8.52846 23.9768C9.24182 23.9361 9.93487 24.0242 10.5903 24.3319C11.2698 24.6518 11.9613 24.9482 12.6303 25.2899C13.1985 25.5796 13.7711 25.6578 14.4025 25.5675C16.1791 25.314 17.9618 25.098 19.7399 24.8564C19.9687 24.8256 20.1997 24.7564 20.4126 24.6645C22.388 23.8142 24.3595 22.9556 26.3318 22.0993C26.3837 22.0767 26.4356 22.0549 26.4853 22.0293C26.8111 21.8622 26.9481 21.5417 26.8284 21.2317C26.708 20.9201 26.3912 20.7606 26.0436 20.8682C25.2362 21.118 24.4355 21.3882 23.6288 21.6395C22.6077 21.9578 21.588 22.2836 20.5571 22.5696C20.1816 22.6742 19.7775 22.7111 19.3855 22.7156C17.9843 22.7336 16.5824 22.7284 15.1813 22.7239C14.6147 22.7216 14.1639 22.4003 13.9856 21.8991C13.8193 21.4318 13.9585 20.8938 14.3422 20.5657C14.4484 20.4746 14.5725 20.4039 14.6937 20.3324C15.9646 19.5829 17.2364 18.8365 18.5081 18.0877C18.9603 17.8213 19.1071 17.3721 18.8775 16.9657C18.642 16.5489 18.1732 16.4495 17.7037 16.7212C16.3446 17.506 14.9849 18.2886 13.6296 19.0795C12.6288 19.6634 11.5573 20.0058 10.3962 20.0435C9.81372 20.0623 9.22978 20.0638 8.64735 20.0593C8.23724 20.0563 7.99193 19.8237 8.0002 19.4746C8.00848 19.1352 8.24552 18.9396 8.65187 18.9328C9.32836 18.9207 10.0056 18.9102 10.6821 18.8906C10.8379 18.8869 10.9929 18.8492 11.1705 18.8237ZM21.4804 10.1308C21.3593 12.3898 19.6308 13.4975 18.2628 13.5825C17.435 13.6344 16.6742 13.4373 16.0008 12.9534C15.0458 12.2672 14.5718 11.3137 14.5206 10.1293C13.8757 10.1293 13.2556 10.1429 12.6363 10.1233C12.3542 10.1143 12.2932 10.2166 12.294 10.48C12.3022 13.0385 12.2992 15.5977 12.3 18.1562C12.3 18.2465 12.3075 18.336 12.3143 18.4753C12.5618 18.3488 12.7808 18.248 12.9893 18.1284C14.3897 17.3217 15.7886 16.512 17.1859 15.7008C17.6811 15.4133 18.2026 15.3103 18.7564 15.4833C19.5413 15.7286 20.0176 16.2719 20.1229 17.0794C20.2313 17.9116 19.8919 18.5716 19.1658 19.0035C17.8654 19.7771 16.5576 20.5371 15.2558 21.3084C15.1768 21.3551 15.1241 21.4461 15.0586 21.5169C15.1474 21.5454 15.2362 21.5989 15.325 21.5989C16.6321 21.6041 17.9399 21.6087 19.247 21.5981C19.5646 21.5959 19.8949 21.5853 20.1974 21.5003C21.281 21.194 22.3526 20.8486 23.4332 20.5311C23.6424 20.4694 23.7003 20.3723 23.6996 20.1578C23.692 16.9311 23.6943 13.7044 23.6943 10.4777C23.6943 10.4213 23.7138 10.3528 23.689 10.3114C23.6491 10.2429 23.5807 10.1421 23.5227 10.1406C22.8462 10.1263 22.1705 10.1308 21.4804 10.1308ZM15.6824 10.1436C15.6877 11.4507 16.8842 12.4575 18.256 12.3439C19.3757 12.2514 20.4315 11.1091 20.2832 10.1436C18.7556 10.1436 17.2273 10.1436 15.6824 10.1436Z" fill="#FF9934"/>
</svg>
