<svg width="36" height="36" viewBox="0 0 36 36" fill="none" xmlns="http://www.w3.org/2000/svg">
<rect width="36" height="36" rx="8" fill="#CD4EE2" fill-opacity="0.1"/>
<path d="M27.7963 15.9674C26.9266 11.51 23.1441 8.30288 18.6207 8.02975C15.8294 7.86146 13.3879 8.74254 11.3024 10.6025C11.2548 10.6448 11.2046 10.6836 11.1482 10.7294C11.1385 10.6941 11.1315 10.6818 11.1315 10.6695C11.1306 10.0254 11.1306 9.38133 11.1288 8.73726C11.1288 8.65003 11.1288 8.55928 11.1085 8.47558C11.0354 8.18041 10.7464 7.97512 10.4565 8.00244C10.1226 8.03415 9.88384 8.29319 9.87855 8.65091C9.8715 9.13198 9.87679 9.61306 9.87679 10.095C9.87679 10.8342 9.87415 11.5726 9.87767 12.3118C9.87943 12.7189 10.1244 12.9938 10.4997 12.9955C11.7553 13.0008 13.0117 13.0008 14.2672 12.9955C14.6672 12.9938 14.9483 12.6343 14.8717 12.2484C14.8126 11.9488 14.5518 11.7506 14.1959 11.7488C13.5377 11.7453 12.8786 11.7479 12.2205 11.7479C12.1359 11.7479 12.0504 11.7479 11.9658 11.7479C11.9606 11.7294 11.9561 11.7118 11.9509 11.6933C11.9914 11.658 12.0328 11.6228 12.0733 11.5858C14.2126 9.66151 16.7149 8.90643 19.5449 9.39278C24.3873 10.2263 27.5778 14.941 26.598 19.7455C25.6588 24.3492 21.211 27.4189 16.566 26.6109C13.5483 26.0858 11.3817 24.38 10.0521 21.6284C9.51114 20.5085 9.26708 19.312 9.25739 18.0688C9.25563 17.838 9.19131 17.6406 9.00099 17.4996C8.80451 17.3543 8.586 17.3313 8.36661 17.4344C8.10581 17.5569 7.99656 17.7781 8.00008 18.0618C8.01859 19.5111 8.29789 20.9085 8.94284 22.2073C10.6266 25.5959 13.3579 27.5484 17.129 27.9431C19.6154 28.203 21.9221 27.5722 23.9072 26.0523C27.2429 23.4972 28.6007 20.0891 27.7963 15.9674Z" fill="#CD4EE2"/>
<path d="M12.8676 21.7366C14.4729 22.3375 16.0782 22.9357 17.6818 23.5401C17.903 23.6238 18.1091 23.6291 18.332 23.5454C19.9356 22.941 21.5418 22.3427 23.1463 21.7418C23.5225 21.6009 23.6406 21.4264 23.6415 21.0211C23.6423 20.1198 23.6415 19.2184 23.6415 18.3171C23.6415 17.4157 23.6423 16.5144 23.6415 15.613C23.6415 15.1945 23.5234 15.0192 23.1401 14.8756C21.5418 14.2764 19.9427 13.6808 18.3461 13.079C18.125 12.9953 17.9197 12.99 17.6959 13.0746C16.087 13.6826 14.4755 14.2835 12.8649 14.887C12.5134 15.0192 12.3874 15.2016 12.3874 15.5778C12.3865 17.4007 12.3865 19.2237 12.3874 21.0458C12.3874 21.4203 12.5195 21.6062 12.8676 21.7366ZM16.2139 14.9654C16.7655 14.7584 17.3162 14.5504 17.8695 14.3496C17.9453 14.3222 18.0457 14.309 18.1171 14.3355C19.1206 14.7038 20.1215 15.08 21.1224 15.4553C21.1462 15.4641 21.1665 15.4809 21.2132 15.5082C20.711 15.6959 20.2299 15.8756 19.7497 16.0553C19.2175 16.2545 18.6862 16.4571 18.1514 16.6509C18.0765 16.6783 17.9761 16.6853 17.903 16.6589C16.9056 16.2932 15.9108 15.9196 14.9152 15.5469C14.8905 15.5381 14.8685 15.5214 14.8165 15.4923C15.2985 15.3099 15.7558 15.1372 16.2139 14.9654ZM18.7691 22.0449C18.7391 22.0564 18.7056 22.0608 18.6475 22.0749C18.6431 21.9912 18.6369 21.9207 18.6369 21.8502C18.636 20.57 18.6395 19.2907 18.6325 18.0105C18.6316 17.8571 18.6757 17.7875 18.8219 17.7338C19.9524 17.317 21.0793 16.8915 22.2079 16.4686C22.2573 16.4501 22.3084 16.4351 22.3842 16.4104C22.3886 16.4915 22.3938 16.5443 22.3938 16.5972C22.3947 17.9038 22.393 19.2114 22.3965 20.518C22.3965 20.6334 22.3718 20.6986 22.2511 20.7436C21.089 21.1744 19.9295 21.6114 18.7691 22.0449ZM13.6306 20.5427C13.6368 19.2017 13.6341 17.8607 13.635 16.5197C13.635 16.4932 13.6403 16.4659 13.6464 16.4051C14.25 16.6298 14.8315 16.8465 15.413 17.0642C16.0218 17.2924 16.6307 17.5179 17.236 17.7541C17.3003 17.7787 17.384 17.866 17.384 17.9241C17.3919 19.2854 17.3884 20.6467 17.3875 22.0079C17.3875 22.0211 17.3805 22.0335 17.3699 22.0723C17.3082 22.0537 17.2457 22.0388 17.1866 22.0159C16.058 21.5947 14.9293 21.1718 13.7998 20.7506C13.6984 20.7145 13.6297 20.6784 13.6306 20.5427Z" fill="#CD4EE2"/>
</svg>
