<svg width="36" height="36" viewBox="0 0 36 36" fill="none" xmlns="http://www.w3.org/2000/svg">
<rect width="36" height="36" rx="8" fill="#0A9CDB" fill-opacity="0.1"/>
<path d="M8.00108 17.7162C8.03786 17.4339 8.06382 17.1505 8.11249 16.8704C8.72791 13.312 10.7116 10.8383 14.0267 9.42362C14.1164 9.38576 14.2062 9.35007 14.323 9.30248C14.2516 9.25489 14.1965 9.2192 14.1424 9.18134C13.859 8.97908 13.7746 8.62973 13.938 8.33661C14.1045 8.03701 14.469 7.90614 14.7773 8.07379C15.3256 8.37123 15.8664 8.6838 16.3986 9.00828C16.6982 9.19107 16.7739 9.548 16.5954 9.86707C16.311 10.3776 16.0189 10.8859 15.7183 11.3867C15.5171 11.722 15.1429 11.8172 14.8249 11.6355C14.5145 11.4581 14.4236 11.0817 14.6064 10.7334C14.6302 10.688 14.6551 10.6426 14.7059 10.5496C14.5123 10.6242 14.3565 10.6729 14.2094 10.7421C11.5909 11.9708 9.97391 13.9977 9.42122 16.838C9.15298 18.217 9.28385 19.582 9.73704 20.9156C9.78463 21.054 9.82465 21.2076 9.81384 21.3504C9.79112 21.6597 9.54344 21.889 9.24059 21.9215C8.94748 21.9528 8.65328 21.769 8.5581 21.4499C8.40993 20.9523 8.2704 20.4516 8.16224 19.9443C8.08004 19.5592 8.05192 19.1623 8 18.7708C8.00108 18.4192 8.00108 18.0677 8.00108 17.7162Z" fill="#0A9CDB"/>
<path d="M25.5695 19.6426C25.6895 18.973 25.723 18.3436 25.6776 17.7119C25.5402 15.8094 24.8318 14.1459 23.5523 12.7322C22.3528 11.4073 20.8656 10.5788 19.1177 10.2164C19.029 10.1981 18.9382 10.1829 18.8517 10.157C18.5164 10.0553 18.3228 9.7254 18.3996 9.3966C18.4796 9.05806 18.8062 8.8439 19.1556 8.90772C20.7207 9.19109 22.1397 9.8076 23.3792 10.8048C25.259 12.3158 26.4207 14.2649 26.8511 16.64C27.0469 17.7184 27.0307 18.8022 26.8447 19.8827C26.8382 19.9205 26.8328 19.9584 26.8241 20.0189C26.9204 19.9714 26.9982 19.9303 27.0772 19.8946C27.3909 19.754 27.7402 19.8621 27.9079 20.1498C28.0798 20.4462 28.0052 20.8226 27.7034 21.0075C27.1821 21.3266 26.6532 21.6327 26.1178 21.9269C25.7847 22.1097 25.4375 22.0026 25.2428 21.6738C24.9443 21.1708 24.6512 20.6636 24.3667 20.1531C24.1818 19.8221 24.2845 19.4511 24.5906 19.2694C24.8967 19.0877 25.259 19.1818 25.4743 19.4976C25.4981 19.5333 25.5219 19.5712 25.5695 19.6426Z" fill="#0A9CDB"/>
<path d="M11.3591 25.5429C11.3591 25.6132 11.3623 25.6824 11.358 25.7517C11.3374 26.0989 11.0638 26.3628 10.722 26.3671C10.3748 26.3714 10.0795 26.1021 10.0741 25.7463C10.0644 25.1341 10.0633 24.523 10.0741 23.9108C10.0806 23.5604 10.3575 23.3029 10.709 23.2997C11.2887 23.2943 11.8674 23.2954 12.4471 23.2986C12.8517 23.3008 13.1372 23.5647 13.1426 23.9346C13.1491 24.2969 12.8636 24.5716 12.4623 24.5889C12.4255 24.59 12.3898 24.5933 12.3357 24.6376C12.6094 24.8291 12.8754 25.0335 13.1599 25.2087C14.527 26.0545 16.0186 26.4882 17.6258 26.446C19.9631 26.3844 21.9403 25.491 23.5432 23.7842C23.6276 23.6945 23.7065 23.5982 23.7931 23.5095C24.0559 23.2424 24.4399 23.2251 24.7038 23.4652C24.9666 23.7053 25.0001 24.099 24.7416 24.3748C24.3739 24.7685 24.004 25.1665 23.593 25.5148C22.2626 26.6418 20.7257 27.3448 19.0048 27.6174C16.8016 27.9657 14.7174 27.5915 12.7792 26.4807C12.2979 26.2038 11.8479 25.8674 11.3591 25.5429Z" fill="#0A9CDB"/>
</svg>
