<svg width="80" height="80" viewBox="0 0 80 80" fill="none" xmlns="http://www.w3.org/2000/svg">
<path d="M54.468 6.66602C65.768 6.66602 73.3346 14.5993 73.3346 26.3993V53.636C73.3346 65.3993 65.768 73.3327 54.468 73.3327H25.568C14.268 73.3327 6.66797 65.3993 6.66797 53.636V26.3993C6.66797 14.5993 14.268 6.66602 25.568 6.66602H54.468ZM53.9346 29.9993C52.8013 28.866 50.9346 28.866 49.8013 29.9993L36.0346 43.766L30.2013 37.9327C29.068 36.7994 27.2013 36.7994 26.068 37.9327C24.9346 39.066 24.9346 40.8993 26.068 42.066L34.0013 49.966C34.568 50.5327 35.3013 50.7994 36.0346 50.7994C36.8013 50.7994 37.5346 50.5327 38.1013 49.966L53.9346 34.1327C55.068 32.9993 55.068 31.166 53.9346 29.9993Z" fill="white"/>
</svg>
